<svg xmlns="http://www.w3.org/2000/svg" xmlns:xlink="http://www.w3.org/1999/xlink" version="1.1" x="0px" y="0px" viewBox="0 0 100 100" enable-background="new 0 0 100 100" xml:space="preserve"><polygon points="68.4482422,60.1044922 63.4482422,51.4453125 58.4482422,60.1044922 "/><polygon points="62.1142578,49.1357422 56.7783203,39.8935547 43.2177734,39.8935547 37.8847656,49.1308594 44.2216797,60.1044922   55.78125,60.1044922 "/><polygon points="48.0009766,71.2714844 42.2207031,61.2597656 31.1611328,61.2597656 36.9423828,71.2714844 "/><polygon points="50.9990234,27.5722656 56.7783203,37.5830078 67.8378906,37.5830078 62.0576172,27.5722656 "/><polygon points="30.0517578,61.6474609 13.7949219,71.2714844 35.6083984,71.2714844 "/><polygon points="75.1728516,50.2880859 69.6445313,40.7119141 64.1142578,50.2900391 69.6435547,59.8652344 "/><polygon points="58.1123047,39.8935547 62.78125,47.9794922 67.4501953,39.8935547 "/><polygon points="32.5517578,39.8935547 37.2177734,47.9755859 41.8847656,39.8935547 "/><polygon points="24.8271484,50.2880859 30.3544922,59.8632813 35.8847656,50.2861328 30.3564453,40.7109375 "/><polygon points="24.1601563,51.4433594 13.3271484,70.2070313 29.4736328,60.6484375 "/><polygon points="48.9980469,27.5722656 37.9414063,27.5722656 32.1621094,37.5830078 43.2177734,37.5830078 "/><polygon points="36.5517578,51.4414063 31.5498047,60.1044922 41.5537109,60.1044922 "/><polygon points="11.8681641,68.1132813 22.8261719,49.1337891 11.8681641,30.1542969 "/><polygon points="29.9345703,36.8212891 35.2744141,27.5722656 14.0048828,27.5722656 "/><polygon points="63.0585938,71.2714844 68.8388672,61.2597656 57.78125,61.2597656 52.0019531,71.2714844 "/><polygon points="23.4931641,47.9785156 28.7792969,38.8222656 12.875,29.5878906 "/><polygon points="36.9423828,73.5810547 15.0205078,73.5810547 47.9248047,92.6044922 "/><polygon points="48.8447266,73.5810547 38.2753906,73.5810547 48.8447266,91.8867188 "/><polygon points="35.9414063,26.4169922 46.9238281,7.3955078 14.0214844,26.4169922 "/><polygon points="63.0585938,73.5810547 52.0761719,92.6035156 84.9775391,73.5810547 "/><polygon points="49.421875,26.4169922 49.421875,7.6865234 38.609375,26.4169922 "/><polygon points="55.1142578,61.2597656 44.8876953,61.2597656 50.0009766,70.1162109 "/><polygon points="51.1552734,73.5810547 51.1552734,91.8896484 61.7246094,73.5810547 "/><polygon points="75.8398438,51.4433594 70.4326172,60.8095703 86.7011719,70.2558594 "/><polygon points="44.5517578,37.5830078 55.4453125,37.5830078 49.9990234,28.1503906 "/><polygon points="69.8544922,61.8105469 64.3925781,71.2714844 86.1494141,71.2714844 "/><polygon points="76.5068359,47.9785156 87.0986328,29.6337891 71.3105469,38.9794922 "/><polygon points="88.1318359,30.1542969 77.1738281,49.1337891 88.1318359,68.1123047 "/><polygon points="50.5771484,26.4169922 61.390625,26.4169922 50.5771484,7.6894531 "/><polygon points="70.15625,36.9785156 86.0458984,27.5722656 64.7246094,27.5722656 "/><polygon points="64.0585938,26.4169922 85.9755859,26.4169922 53.0761719,7.3955078 "/></svg>